<svg width="15" height="24" viewBox="0 0 15 24" fill="none" xmlns="http://www.w3.org/2000/svg">
<path d="M5.17454 15.8927L13.4189 23.1065L7.7509 8.67883L1.56763 22.5912L10.3273 15.8927" stroke="#E55B41" stroke-width="1.3" stroke-linecap="round"/>
<circle cx="7.67336" cy="7.67336" r="6.67336" stroke="#E55B41" stroke-width="1.3"/>
<path d="M6.64916 11.1187C5.16356 10.6778 4.07996 9.30214 4.07996 7.67343C4.07996 5.68887 5.68875 4.08008 7.6733 4.08008C9.65785 4.08008 11.2666 5.68887 11.2666 7.67343C11.2666 9.30214 10.183 10.6778 8.69745 11.1187" stroke="#E55B41" stroke-width="1.3"/>
<path d="M8.99997 11.463C9.90442 11.1464 10.6658 10.5167 11.1466 9.68776C11.6274 8.85882 11.7958 7.88526 11.6215 6.94297C11.4471 6.00068 10.9416 5.15182 10.1961 4.54973C9.45054 3.94765 8.51428 3.63205 7.55641 3.65996C6.59854 3.68787 5.68224 4.05744 4.97305 4.70191C4.26386 5.34638 3.80856 6.22325 3.6894 7.17409C3.57023 8.12492 3.79507 9.08703 4.32329 9.88657C4.85151 10.6861 5.64827 11.2704 6.56963 11.5338L7.67335 7.67337L8.99997 11.463Z" fill="#E55B41"/>
</svg>
