<svg width="24" height="25" viewBox="0 0 24 25" fill="none" xmlns="http://www.w3.org/2000/svg">
<path d="M16.0687 15.3711C16.1755 15.478 16.2609 15.6058 16.3201 15.7472C16.3793 15.8886 16.4111 16.0408 16.4137 16.195C16.4164 16.3493 16.3897 16.5026 16.3353 16.646C16.2809 16.7895 16.1999 16.9204 16.0968 17.0312C15.9919 17.1438 15.8667 17.2336 15.7283 17.2956C15.59 17.3576 15.4412 17.3906 15.2906 17.3925C14.9975 17.3884 14.7165 17.2699 14.5031 17.0605C13.8284 16.3906 12.932 16.017 12 16.017C11.0679 16.017 10.1716 16.3906 9.49684 17.0605C9.39035 17.1676 9.26465 17.2518 9.12692 17.3083C8.9892 17.3647 8.84214 17.3924 8.69414 17.3897C8.54615 17.387 8.40012 17.3539 8.26439 17.2924C8.12866 17.2309 8.00589 17.1421 7.90309 17.0312C7.80029 16.9203 7.71948 16.7893 7.66525 16.6459C7.61103 16.5024 7.58447 16.3492 7.58708 16.1951C7.58969 16.0409 7.62143 15.8888 7.68047 15.7474C7.73952 15.606 7.82472 15.4781 7.93122 15.3711C9.02679 14.2799 10.4842 13.6709 12 13.6709C13.5158 13.6709 14.9731 14.2799 16.0687 15.3711ZM12 8.98433C9.2848 8.97389 6.67604 10.0833 4.74372 12.0703C4.63789 12.177 4.5534 12.3045 4.49513 12.4455C4.43686 12.5864 4.40596 12.738 4.40422 12.8914C4.40247 13.0448 4.42992 13.1971 4.48497 13.3394C4.54002 13.4818 4.62159 13.6113 4.72497 13.7207C4.82825 13.8312 4.95146 13.9194 5.08754 13.9802C5.22361 14.0411 5.36988 14.0733 5.51795 14.0751C5.66602 14.077 5.81297 14.0483 5.95039 13.9908C6.0878 13.9333 6.21297 13.8482 6.31872 13.7402C7.83734 12.1941 9.8765 11.3285 12 11.3285C14.1234 11.3285 16.1626 12.1941 17.6812 13.7402C17.8914 13.9547 18.1745 14.0741 18.4687 14.0722C18.6187 14.0721 18.7673 14.0409 18.9057 13.9806C19.044 13.9202 19.1696 13.8319 19.275 13.7207C19.3783 13.6113 19.4599 13.4818 19.515 13.3394C19.57 13.1971 19.5975 13.0448 19.5957 12.8914C19.594 12.738 19.5631 12.5864 19.5048 12.4455C19.4465 12.3045 19.362 12.177 19.2562 12.0703C17.3239 10.0833 14.7151 8.97389 12 8.98433ZM22.4437 8.74996C19.6576 5.89673 15.907 4.29785 12 4.29785C8.09294 4.29785 4.34229 5.89673 1.55622 8.74996C1.34363 8.96881 1.22321 9.26668 1.22146 9.57802C1.2197 9.88936 1.33674 10.1887 1.54684 10.4101C1.75695 10.6316 2.04289 10.757 2.34178 10.7588C2.64066 10.7607 2.92801 10.6387 3.14059 10.4199C5.5029 7.99731 8.68497 6.63949 12 6.63949C15.315 6.63949 18.497 7.99731 20.8593 10.4199C21.0686 10.6371 21.3514 10.7599 21.6468 10.7617C21.8717 10.7642 22.0921 10.6966 22.2797 10.5674C22.4673 10.4382 22.6134 10.2534 22.6991 10.0369C22.7849 9.82033 22.8064 9.58199 22.7609 9.3526C22.7154 9.12322 22.6049 8.91331 22.4437 8.74996ZM12 17.9687C11.7033 17.9687 11.4133 18.0603 11.1666 18.232C10.9199 18.4037 10.7277 18.6478 10.6141 18.9333C10.5006 19.2188 10.4709 19.5329 10.5288 19.836C10.5867 20.1391 10.7295 20.4175 10.9393 20.6361C11.1491 20.8546 11.4164 21.0034 11.7073 21.0637C11.9983 21.124 12.2999 21.093 12.574 20.9748C12.8481 20.8565 13.0823 20.6562 13.2472 20.3993C13.412 20.1423 13.5 19.8402 13.5 19.5312C13.5 19.1168 13.3419 18.7194 13.0606 18.4264C12.7793 18.1333 12.3978 17.9687 12 17.9687Z" fill="#64B630"/>
</svg>
